<svg width="158" height="158" viewBox="0 0 158 158" fill="none" xmlns="http://www.w3.org/2000/svg">
<circle cx="79" cy="79" r="79" fill="white"/>
<path d="M79.6284 67.8555C78.6805 65.7523 77.7474 63.9157 76.8291 62.3457C75.9108 60.7461 74.7111 59.0872 73.23 57.3691C71.7489 55.651 70.1641 54.244 68.4756 53.1479C66.7871 52.0519 64.7135 51.1484 62.2549 50.4375C59.7962 49.7266 57.0858 49.3711 54.1235 49.3711C50.9243 49.3711 48.0213 50.0228 45.4146 51.3262C42.8078 52.6296 40.6602 54.3328 38.9717 56.436C37.3128 58.5392 35.9058 60.9831 34.7505 63.7676C33.6248 66.5225 32.825 69.307 32.3511 72.1211C31.8771 74.9056 31.6401 77.7345 31.6401 80.6079C31.6401 83.4517 31.8919 86.2806 32.3955 89.0947C32.8991 91.8792 33.7285 94.6489 34.8838 97.4038C36.0687 100.159 37.5202 102.573 39.2383 104.646C40.9564 106.72 43.1188 108.409 45.7256 109.712C48.362 110.986 51.2798 111.623 54.479 111.623C60.9959 111.623 65.5282 110.171 68.0757 107.268V89.228C68.0757 88.606 67.8239 88.0579 67.3203 87.584C66.8167 87.0804 66.2391 86.6953 65.5874 86.4287C64.9357 86.1621 64.0618 85.9251 62.9658 85.7178C61.8994 85.4808 61.0256 85.3179 60.3442 85.229C59.6629 85.1401 58.8039 85.0513 57.7671 84.9624C57.6486 84.4884 57.5894 84.133 57.5894 83.896C57.5894 83.6886 57.6486 83.348 57.7671 82.874C64.4618 83.111 69.616 83.2295 73.23 83.2295C76.9032 83.2295 82.0575 83.111 88.6929 82.874C88.841 83.4665 88.915 83.8071 88.915 83.896C88.915 84.0145 88.841 84.37 88.6929 84.9624C87.6561 85.0513 86.797 85.1401 86.1157 85.229C85.4344 85.3179 84.5457 85.4808 83.4497 85.7178C82.3833 85.9251 81.5243 86.1621 80.8726 86.4287C80.2505 86.6953 79.6877 87.0804 79.1841 87.584C78.6805 88.0579 78.4287 88.606 78.4287 89.228V95.8042C78.4287 101.432 79.0952 106.039 80.4282 109.623C75.5405 111.43 71.2008 112.748 67.4092 113.578C63.6175 114.407 59.3075 114.822 54.479 114.822C51.6056 114.822 48.7174 114.526 45.8145 113.933C42.9115 113.341 39.8604 112.23 36.6611 110.601C33.4915 108.971 30.6922 106.927 28.2632 104.469C25.8638 102.01 23.8643 98.722 22.2646 94.6045C20.6947 90.487 19.9097 85.8215 19.9097 80.6079C19.9097 76.8459 20.3096 73.3652 21.1094 70.166C21.9388 66.9372 23.0348 64.1675 24.3975 61.8569C25.7601 59.5464 27.3745 57.4728 29.2407 55.6362C31.1366 53.7996 33.1064 52.3037 35.1504 51.1484C37.1943 49.9932 39.342 49.0452 41.5933 48.3047C43.8742 47.5345 46.0366 47.0013 48.0806 46.7051C50.1245 46.3792 52.1388 46.2163 54.1235 46.2163C57.4412 46.2163 60.596 46.4237 63.5879 46.8384C66.6094 47.2235 69.616 47.7122 72.6079 48.3047C75.5998 48.8675 77.9696 49.2526 79.7173 49.46C79.2729 50.793 79.0508 52.674 79.0508 55.103C79.0508 59.1317 79.7765 63.0566 81.228 66.8779C81.0503 67.4111 80.5171 67.737 79.6284 67.8555Z" fill="black"/>
<path d="M122.211 65.478C121.085 60.0571 119.012 55.8507 115.99 52.8589C112.998 49.867 109.399 48.3711 105.193 48.3711C101.075 48.3711 97.8761 49.3486 95.5952 51.3037C93.3439 53.2588 92.2183 55.8656 92.2183 59.124C92.2183 60.931 92.3812 62.4269 92.707 63.6118C93.0329 64.7967 93.6994 65.952 94.7065 67.0776C95.7137 68.1737 97.18 69.1512 99.1055 70.0103C101.031 70.8397 103.549 71.6395 106.659 72.4097C108.348 72.8244 109.814 73.2095 111.058 73.5649C112.332 73.9204 113.724 74.4092 115.235 75.0312C116.775 75.6533 118.093 76.3198 119.189 77.0308C120.315 77.7417 121.426 78.6304 122.522 79.6968C123.648 80.7336 124.551 81.8888 125.232 83.1626C125.943 84.4364 126.506 85.9471 126.921 87.6948C127.365 89.4129 127.587 91.2939 127.587 93.3379C127.587 96.0632 127.084 98.5811 126.077 100.892C125.069 103.173 123.751 105.098 122.122 106.668C120.493 108.238 118.612 109.571 116.479 110.667C114.346 111.763 112.184 112.563 109.992 113.066C107.8 113.57 105.622 113.822 103.46 113.822C96.8838 113.822 89.8781 112.118 82.4429 108.712C82.591 105.513 82.665 103.543 82.665 102.802C82.665 97.9738 82.2651 93.1602 81.4653 88.3613C81.7912 88.154 82.117 88.0503 82.4429 88.0503C82.8576 88.0503 83.2279 88.154 83.5537 88.3613C84.1758 92.1826 85.1978 95.5596 86.6196 98.4922C88.0711 101.425 89.73 103.75 91.5962 105.468C93.4624 107.157 95.3879 108.431 97.3726 109.29C99.3869 110.119 101.416 110.534 103.46 110.534C108.111 110.534 111.68 109.334 114.168 106.935C116.686 104.506 117.945 101.306 117.945 97.3369C117.945 93.3379 117.012 90.3312 115.146 88.3169C113.309 86.2729 109.784 84.6141 104.571 83.3403C98.0539 81.7111 92.9588 79.3117 89.2856 76.1421C85.6421 72.9429 83.8203 68.7217 83.8203 63.4785C83.8203 60.7236 84.2646 58.265 85.1533 56.1025C86.0716 53.9105 87.2417 52.1628 88.6636 50.8594C90.1151 49.5264 91.8035 48.4303 93.729 47.5713C95.6545 46.6826 97.5503 46.0754 99.4165 45.7495C101.312 45.394 103.238 45.2163 105.193 45.2163C111.058 45.2163 117.16 46.5789 123.5 49.3042C123.322 51.0519 123.233 52.8737 123.233 54.7695C123.233 59.2129 123.588 62.7824 124.299 65.478C123.914 65.6261 123.588 65.7002 123.322 65.7002C123.026 65.7002 122.655 65.6261 122.211 65.478Z" fill="black"/>
<circle cx="137.5" cy="107.5" r="6.5" fill="#F7A900"/>
</svg>
